<?xml version="1.0" encoding="utf-8"?>
<!-- Generator: Adobe Illustrator 28.3.0, SVG Export Plug-In . SVG Version: 6.00 Build 0)  -->
<svg version="1.1" id="Layer_1" xmlns="http://www.w3.org/2000/svg" xmlns:xlink="http://www.w3.org/1999/xlink" x="0px" y="0px"
	 viewBox="0 0 1000 1000" style="enable-background:new 0 0 1000 1000;" xml:space="preserve">
<style type="text/css">
	.st0{fill:#000099;}
</style>
<path class="st0" d="M576.4,777.7c-14.7-8.7-28.2-23.5-33.6-37.8c-5.4-14.4-4.7-43.7-4.7-94.4V421.1h204.1V264.9H538.1V62.4H412.5
	c-5.6,45.1-15.9,82.3-30.9,111.5S346.9,228.2,322,249c-24.7,20.8-64.8,36.9-99.5,48v124h119.9v306.9c0,40.1,4.2,70.6,12.7,91.7
	c8.5,21,23.6,41,45.6,59.7c21.9,18.6,48.3,33,79.4,43.1c31,10.1,54.8,15.1,95.1,15.1c35.5,0,68.5-3.6,99.1-10.6
	c30.6-7.2,64.8-19.5,102.4-37v-138c-44.2,28.8-88.6,43.1-133.4,43.1C618.3,795,596,789.2,576.4,777.7z"/>
</svg>
